<?xml version="1.0" encoding="utf-8"?>
<!-- Generator: Adobe Illustrator 16.0.0, SVG Export Plug-In . SVG Version: 6.00 Build 0)  -->
<!DOCTYPE svg PUBLIC "-//W3C//DTD SVG 1.1//EN" "http://www.w3.org/Graphics/SVG/1.1/DTD/svg11.dtd">
<svg version="1.1" id="Layer_1" xmlns="http://www.w3.org/2000/svg" xmlns:xlink="http://www.w3.org/1999/xlink" x="0px" y="0px"
	 width="521px" height="138px" viewBox="0 0 521 138" enable-background="new 0 0 521 138" xml:space="preserve">
<g>
	<polygon fill="#F95E27" points="509.197,6.231 511.759,13.037 514.313,6.231 516.309,6.231 516.309,15.111 514.771,15.111 
		514.771,12.184 514.923,8.269 512.301,15.111 511.198,15.111 508.581,8.274 508.734,12.184 508.734,15.111 507.197,15.111 
		507.197,6.231 	"/>
	<polygon fill="#F95E27" points="506.031,7.475 503.263,7.475 503.263,15.11 501.732,15.11 501.732,7.475 498.988,7.475 
		498.988,6.232 506.031,6.232 	"/>
	<path fill="#F95E27" d="M497.769,22.724c11.515,11.146,19.007,27.229,19.007,46.056c0,16.265-5.848,32.896-19.007,45.691
		c-11.331,10.965-26.684,17.908-47.152,17.908c-22.845,0-38.379-9.135-47.519-17.908c-11.695-10.967-19.008-27.416-19.008-45.325
		c0-17.546,7.861-35.275,18.827-46.239c8.225-8.224,23.393-17.911,47.699-17.911C469.623,4.996,485.524,10.846,497.769,22.724
		 M423.751,41.364c-5.3,5.118-10.782,14.073-10.782,27.598c0,11.147,3.654,20.103,11.148,27.415
		c7.858,7.494,16.632,10.051,26.133,10.051c12.43,0,21.201-4.57,27.049-10.418c4.753-4.568,10.601-13.158,10.601-27.23
		c0-12.611-5.117-21.932-10.601-27.416c-6.029-5.847-15.717-10.416-26.863-10.416C439.834,30.948,430.331,34.785,423.751,41.364"/>
	<path fill="#F95E27" d="M272.728,7.736h64.119c15.534,0,25.22,5.118,31.067,10.601c5.118,4.935,10.602,13.706,10.602,27.231
		c0,7.676-1.645,17.181-9.503,24.855c-4.205,4.02-10.235,7.678-16.998,9.321l37.466,49.894h-34.359l-44.933-66.525h18.434
		c5.118,0,12.063-0.548,16.813-5.299c2.011-2.012,4.57-5.848,4.57-11.88c0-6.945-3.29-10.6-5.667-12.427
		c-4.568-3.473-11.878-3.839-15.533-3.839h-41.14L272.728,7.736z"/>
	<path fill="#F95E27" d="M194.698,96.377c-7.495-7.313-11.15-16.268-11.15-27.415c0-13.524,5.485-22.48,10.784-27.599
		c6.579-6.577,16.084-10.415,26.684-10.415c10.098,0,18.986,3.754,25.055,8.805l15.188-22.944
		c-11.082-7.906-24.533-11.813-40.06-11.813c-24.307,0-39.477,9.685-47.701,17.911c-10.964,10.964-18.824,28.693-18.824,46.237
		c0,17.91,7.311,34.359,19.006,45.324c3.994,3.834,9.207,7.736,15.718,10.916l14.822-22.396
		C200.916,101.43,197.738,99.275,194.698,96.377"/>
	<polygon fill="#F95E27" points="133.813,128.883 168.375,128.883 87.765,7.093 7.159,128.883 41.718,128.883 87.765,59.31 	"/>
</g>
</svg>
